<svg width="20.000000" height="20.000000" viewBox="0 0 20 20" fill="none" xmlns="http://www.w3.org/2000/svg" xmlns:xlink="http://www.w3.org/1999/xlink">
	<desc>
			Created with Pixso.
	</desc>
	<defs/>
	<path id="Union" d="M10 0C4.57898 0 0 4.579 0 10C0 13.189 1.59198 16.078 4 17.924L4 18L4.10199 18C5.77002 19.245 7.81299 20 10 20C12.187 20 14.23 19.245 15.898 18L16 18L16 17.924C18.408 16.078 20 13.19 20 10C20 4.579 15.421 0 10 0ZM15.61 15.641C15.2286 14.7329 14.5877 13.9574 13.7678 13.4117C12.9478 12.866 11.985 12.5742 11 12.573L9 12.573C8.01501 12.5742 7.05225 12.866 6.23224 13.4117C5.41229 13.9574 4.77142 14.7329 4.39001 15.641C2.92297 14.182 2 12.176 2 10C2 5.663 5.66302 2 10 2C14.337 2 18 5.663 18 10C18 12.176 17.077 14.182 15.61 15.641ZM6 8C6 5.72 7.71997 4 10 4C12.28 4 14 5.72 14 8C14 10.28 12.28 12 10 12C7.71997 12 6 10.28 6 8ZM8 8C8 9.178 8.82202 10 10 10C11.178 10 12 9.178 12 8C12 6.822 11.178 6 10 6C8.82202 6 8 6.822 8 8ZM6.07397 16.927C6.22137 16.2604 6.59155 15.6639 7.12347 15.236C7.6554 14.808 8.31732 14.5742 9 14.573L11 14.573C11.6827 14.5744 12.3445 14.8083 12.8763 15.2362C13.4083 15.6641 13.7784 16.2605 13.926 16.927C12.758 17.604 11.416 18 10 18C8.58398 18 7.242 17.604 6.07397 16.927Z" clip-rule="evenodd" fill="#9B9B9B" fill-opacity="1.000000" fill-rule="evenodd"/>
</svg>
