<svg width="20.000000" height="20.000000" viewBox="0 0 20 20" fill="none" xmlns="http://www.w3.org/2000/svg" xmlns:xlink="http://www.w3.org/1999/xlink">
	<desc>
			Created with Pixso.
	</desc>
	<defs/>
	<path id="Union" d="M10 0C4.5791 0 0 4.579 0 10C0 13.189 1.59204 16.078 4 17.924L4 18L4.10205 18C5.77002 19.245 7.81299 20 10 20C12.187 20 14.23 19.245 15.8979 18L16 18L16 17.924C18.408 16.078 20 13.19 20 10C20 4.579 15.4209 0 10 0ZM15.6101 15.641C15.2285 14.7329 14.5876 13.9574 13.7678 13.4117C12.9478 12.866 11.9851 12.5742 11 12.573L9 12.573C8.01489 12.5742 7.05225 12.866 6.23218 13.4117C5.41235 13.9574 4.77148 14.7329 4.38989 15.641C2.9231 14.182 2 12.176 2 10C2 5.663 5.66309 2 10 2C14.3369 2 18 5.663 18 10C18 12.176 17.0769 14.182 15.6101 15.641ZM6 8C6 5.72 7.71997 4 10 4C12.28 4 14 5.72 14 8C14 10.28 12.28 12 10 12C7.71997 12 6 10.28 6 8ZM8 8C8 9.178 8.82202 10 10 10C11.178 10 12 9.178 12 8C12 6.822 11.178 6 10 6C8.82202 6 8 6.822 8 8ZM6.07397 16.927C6.22144 16.2604 6.59155 15.6639 7.12354 15.236C7.65527 14.808 8.31738 14.5742 9 14.573L11 14.573C11.6826 14.5744 12.3445 14.8083 12.8765 15.2362C13.4082 15.6641 13.7786 16.2605 13.926 16.927C12.7581 17.604 11.416 18 10 18C8.58398 18 7.24194 17.604 6.07397 16.927Z" clip-rule="evenodd" fill="#9B9B9B" fill-opacity="1.000000" fill-rule="evenodd"/>
</svg>
