<svg width="16.000000" height="14.000000" viewBox="0 0 16 14" fill="none" xmlns="http://www.w3.org/2000/svg" xmlns:xlink="http://www.w3.org/1999/xlink">
	<desc>
			Created with Pixso.
	</desc>
	<defs>
		<linearGradient x1="8.000001" y1="0.000000" x2="8.000001" y2="14.000000" id="paint_linear_60_1004_0" gradientUnits="userSpaceOnUse">
			<stop stop-color="#FFB0B0"/>
			<stop offset="1.000000" stop-color="#FF4343"/>
		</linearGradient>
	</defs>
	<path id="Vector" d="M15.61 2.86C15.36 2.3 15 1.79 14.55 1.37C14.11 0.94 13.58 0.6 13 0.36C12.4 0.12 11.75 -0.01 11.1 0C10.19 0 9.3 0.24 8.52 0.7C8.34 0.81 8.16 0.93 8 1.06C7.83 0.93 7.65 0.81 7.47 0.7C6.69 0.24 5.8 0 4.89 0C4.23 0 3.6 0.12 2.99 0.36C2.41 0.6 1.89 0.94 1.44 1.37C0.99 1.79 0.63 2.3 0.38 2.86C0.13 3.45 0 4.07 0 4.71C0 5.31 0.12 5.94 0.37 6.58C0.58 7.11 0.88 7.66 1.26 8.22C1.87 9.11 2.71 10.03 3.74 10.96C5.46 12.51 7.16 13.59 7.24 13.63L7.68 13.9C7.87 14.03 8.12 14.03 8.31 13.9L8.75 13.63C8.83 13.58 10.53 12.51 12.25 10.96C13.28 10.03 14.12 9.11 14.73 8.22C15.11 7.66 15.41 7.11 15.62 6.58C15.87 5.94 16 5.31 16 4.71C16 4.07 15.87 3.45 15.61 2.86Z" fill="url(#paint_linear_60_1004_0)" fill-opacity="1.000000" fill-rule="nonzero"/>
</svg>
