<svg width="21.111084" height="19.000000" viewBox="0 0 21.1111 19" fill="none" xmlns="http://www.w3.org/2000/svg" xmlns:xlink="http://www.w3.org/1999/xlink">
	<desc>
			Created with Pixso.
	</desc>
	<defs>
		<clipPath id="clip60_590">
			<rect id="zmdi:favorite-outline" width="21.111111" height="19.000000" fill="white" fill-opacity="0"/>
		</clipPath>
	</defs>
	<rect id="zmdi:favorite-outline" width="21.111111" height="19.000000" fill="#FFFFFF" fill-opacity="0"/>
	<g clip-path="url(#clip60_590)">
		<path id="Vector" d="M15.1 0C16.72 0 18.09 0.54 19.2 1.64C20.31 2.74 20.86 4.08 20.86 5.67C20.86 6.44 20.7 7.23 20.37 8.02C20.05 8.81 19.69 9.51 19.3 10.13C18.91 10.74 18.25 11.53 17.32 12.5C16.39 13.47 15.61 14.25 14.97 14.85C14.34 15.45 13.32 16.36 11.92 17.59L10.4 18.95L8.89 17.64C7.52 16.38 6.51 15.45 5.86 14.85C5.21 14.25 4.42 13.47 3.49 12.5C2.56 11.53 1.9 10.74 1.51 10.13C1.12 9.51 0.77 8.81 0.46 8.02C0.15 7.23 0 6.44 0 5.67C0 4.08 0.55 2.74 1.66 1.64C2.76 0.54 4.12 0 5.71 0C7.6 0 9.17 0.72 10.4 2.18C11.64 0.72 13.21 0 15.1 0ZM10.5 16.09C12.1 14.67 13.26 13.61 14 12.91C14.73 12.22 15.54 11.39 16.41 10.42C17.29 9.45 17.91 8.6 18.25 7.87C18.59 7.14 18.76 6.41 18.76 5.67C18.76 4.63 18.41 3.78 17.71 3.1C17.01 2.42 16.14 2.08 15.1 2.08C14.31 2.08 13.57 2.31 12.87 2.76C12.17 3.21 11.67 3.79 11.38 4.5L9.43 4.5C9.17 3.79 8.69 3.21 7.98 2.76C7.28 2.31 6.53 2.08 5.71 2.08C4.67 2.08 3.81 2.42 3.12 3.1C2.44 3.78 2.1 4.63 2.1 5.67C2.1 6.41 2.26 7.14 2.59 7.87C2.91 8.6 3.52 9.45 4.42 10.42C5.31 11.39 6.13 12.22 6.86 12.91C7.59 13.61 8.74 14.67 10.31 16.09L10.4 16.18L10.5 16.09Z" fill="#9B9B9B" fill-opacity="1.000000" fill-rule="nonzero"/>
	</g>
</svg>
